<svg width="1923" height="599" viewBox="0 0 1923 599" fill="none" xmlns="http://www.w3.org/2000/svg">
<mask id="mask0_338_12" style="mask-type:alpha" maskUnits="userSpaceOnUse" x="0" y="0" width="1923" height="599">
<rect x="0.956787" y="0.65332" width="1922" height="597.826" fill="#C4C4C4"/>
</mask>
<g mask="url(#mask0_338_12)">
<circle r="202" transform="matrix(-1 0 0 1 -32.2734 301.48)" fill="#FFB800"/>
<circle r="202" transform="matrix(-1 0 0 1 1371.73 232.48)" fill="#FD4C5C"/>
<path d="M1928.73 598.48C1913.89 598.48 1899.19 595.557 1885.48 589.878C1871.77 584.199 1859.32 575.876 1848.82 565.383C1838.33 554.89 1830.01 542.433 1824.33 528.723C1818.65 515.013 1815.73 500.319 1815.73 485.48C1815.73 470.64 1818.65 455.946 1824.33 442.236C1830.01 428.527 1838.33 416.07 1848.82 405.577C1859.32 395.084 1871.77 386.76 1885.48 381.081C1899.19 375.403 1913.89 372.48 1928.73 372.48L1928.73 485.48L1928.73 598.48Z" fill="#00BB98"/>
</g>
</svg>
