<svg width="35" height="23" viewBox="0 0 35 23" fill="none" xmlns="http://www.w3.org/2000/svg">
<path fill-rule="evenodd" clip-rule="evenodd" d="M35 11.5C35 11.8388 34.8683 12.1638 34.6339 12.4034C34.3995 12.643 34.0816 12.7776 33.7501 12.7776L4.26946 12.7776L12.1365 20.8162C12.3712 21.0561 12.503 21.3815 12.503 21.7208C12.503 22.0601 12.3712 22.3854 12.1365 22.6253C11.9018 22.8652 11.5834 23 11.2515 23C10.9196 23 10.6013 22.8652 10.3666 22.6253L0.367209 12.4045C0.250808 12.2859 0.158458 12.1449 0.0954458 11.9897C0.0324337 11.8344 -1.32117e-06 11.668 -1.31383e-06 11.5C-1.30648e-06 11.332 0.0324338 11.1656 0.0954459 11.0103C0.158458 10.8551 0.250808 10.7141 0.367209 10.5955L10.3666 0.374671C10.6013 0.134772 10.9196 -1.06058e-06 11.2515 -1.03808e-06C11.5834 -1.01558e-06 11.9018 0.134772 12.1365 0.374671C12.3712 0.61457 12.503 0.939943 12.503 1.27921C12.503 1.61848 12.3712 1.94385 12.1365 2.18375L4.26946 10.2224L33.7501 10.2224C34.0816 10.2224 34.3995 10.357 34.6339 10.5966C34.8683 10.8362 35 11.1612 35 11.5V11.5Z" fill="#6958FF"/>
</svg>
