<svg width="60" height="60" viewBox="0 0 60 60" fill="none" xmlns="http://www.w3.org/2000/svg">
<path d="M30 60C22.0435 60 14.4129 56.8393 8.78679 51.2132C3.1607 45.5871 -1.65913e-06 37.9565 -1.31134e-06 30C-9.63552e-07 22.0435 3.1607 14.4129 8.7868 8.78679C14.4129 3.1607 22.0435 -1.65913e-06 30 -1.31134e-06C37.9565 -9.63552e-07 45.5871 3.16071 51.2132 8.7868C56.8393 14.4129 60 22.0435 60 30C60 37.9565 56.8393 45.5871 51.2132 51.2132C45.5871 56.8393 37.9565 60 30 60ZM43.125 31.875C43.6223 31.875 44.0992 31.6775 44.4508 31.3258C44.8025 30.9742 45 30.4973 45 30C45 29.5027 44.8025 29.0258 44.4508 28.6742C44.0992 28.3225 43.6223 28.125 43.125 28.125L21.4012 28.125L29.4525 20.0775C29.8046 19.7254 30.0024 19.2479 30.0024 18.75C30.0024 18.2521 29.8046 17.7746 29.4525 17.4225C29.1004 17.0704 28.6229 16.8726 28.125 16.8726C27.6271 16.8726 27.1496 17.0704 26.7975 17.4225L15.5475 28.6725C15.3729 28.8467 15.2344 29.0536 15.1398 29.2814C15.0453 29.5092 14.9966 29.7534 14.9966 30C14.9966 30.2466 15.0453 30.4908 15.1398 30.7186C15.2344 30.9464 15.3729 31.1533 15.5475 31.3275L26.7975 42.5775C27.1496 42.9296 27.6271 43.1274 28.125 43.1274C28.6229 43.1274 29.1004 42.9296 29.4525 42.5775C29.8046 42.2254 30.0024 41.7479 30.0024 41.25C30.0024 40.7521 29.8046 40.2746 29.4525 39.9225L21.4012 31.875L43.125 31.875Z" fill="#FFB800"/>
</svg>
