<svg width="200" height="200" viewBox="0 0 200 200" fill="none" xmlns="http://www.w3.org/2000/svg">
<rect width="200" height="200" rx="100" fill="url(#paint0_linear_322_3)"/>
<path d="M98.5559 60.0327L99.6531 60C104.226 59.9998 108.627 61.7443 111.959 64.8777C115.29 68.0111 117.3 72.2973 117.58 76.862L117.612 77.9592V81.2245H122.51C125.108 81.2245 127.6 82.2566 129.437 84.0936C131.274 85.9307 132.306 88.4224 132.306 91.0204V130.204C132.306 132.802 131.274 135.294 129.437 137.131C127.6 138.968 125.108 140 122.51 140H76.7959C74.1979 140 71.7062 138.968 69.8692 137.131C68.0321 135.294 67 132.802 67 130.204V91.0204C67 88.4224 68.0321 85.9307 69.8692 84.0936C71.7062 82.2566 74.1979 81.2245 76.7959 81.2245H81.6939V77.9592C81.6937 73.3859 83.4382 68.9848 86.5715 65.6536C89.7049 62.3224 93.9912 60.312 98.5559 60.0327L99.6531 60L98.5559 60.0327ZM99.6531 104.082C97.921 104.082 96.2599 104.77 95.0352 105.994C93.8105 107.219 93.1224 108.88 93.1224 110.612C93.1224 112.344 93.8105 114.005 95.0352 115.23C96.2599 116.455 97.921 117.143 99.6531 117.143C101.385 117.143 103.046 116.455 104.271 115.23C105.496 114.005 106.184 112.344 106.184 110.612C106.184 108.88 105.496 107.219 104.271 105.994C103.046 104.77 101.385 104.082 99.6531 104.082ZM100.489 69.8351L99.6531 69.7959C97.6321 69.795 95.6827 70.5438 94.1819 71.8973C92.6812 73.2508 91.7359 75.1129 91.529 77.1233L91.4898 77.9592V81.2245H107.816V77.9592C107.817 75.9382 107.068 73.9888 105.715 72.4881C104.361 70.9873 102.499 70.042 100.489 69.8351L99.6531 69.7959L100.489 69.8351Z" fill="#6958FF"/>
<defs>
<linearGradient id="paint0_linear_322_3" x1="100" y1="-14.918" x2="100" y2="164.098" gradientUnits="userSpaceOnUse">
<stop stop-color="#DDE6F1"/>
<stop offset="1" stop-color="#F6F8FB"/>
</linearGradient>
</defs>
</svg>
