<svg width="207" height="50" viewBox="0 0 207 50" fill="none" xmlns="http://www.w3.org/2000/svg">
<path d="M82.61 27.2C83.83 27.46 84.81 28.07 85.55 29.03C86.29 29.97 86.66 31.05 86.66 32.27C86.66 34.03 86.04 35.43 84.8 36.47C83.58 37.49 81.87 38 79.67 38H69.86V16.94H79.34C81.48 16.94 83.15 17.43 84.35 18.41C85.57 19.39 86.18 20.72 86.18 22.4C86.18 23.64 85.85 24.67 85.19 25.49C84.55 26.31 83.69 26.88 82.61 27.2ZM74.99 25.46H78.35C79.19 25.46 79.83 25.28 80.27 24.92C80.73 24.54 80.96 23.99 80.96 23.27C80.96 22.55 80.73 22 80.27 21.62C79.83 21.24 79.19 21.05 78.35 21.05H74.99V25.46ZM78.77 33.86C79.63 33.86 80.29 33.67 80.75 33.29C81.23 32.89 81.47 32.32 81.47 31.58C81.47 30.84 81.22 30.26 80.72 29.84C80.24 29.42 79.57 29.21 78.71 29.21H74.99V33.86H78.77ZM106.165 21.26V38H101.035V35.72C100.515 36.46 99.8054 37.06 98.9054 37.52C98.0254 37.96 97.0454 38.18 95.9654 38.18C94.6854 38.18 93.5554 37.9 92.5754 37.34C91.5954 36.76 90.8354 35.93 90.2954 34.85C89.7554 33.77 89.4854 32.5 89.4854 31.04V21.26H94.5854V30.35C94.5854 31.47 94.8754 32.34 95.4554 32.96C96.0354 33.58 96.8154 33.89 97.7954 33.89C98.7954 33.89 99.5854 33.58 100.165 32.96C100.745 32.34 101.035 31.47 101.035 30.35V21.26H106.165ZM122.06 38L114.98 28.7V38H109.85V16.94H114.98V26.18L122 16.94H128.03L119.87 27.26L128.33 38H122.06ZM135.898 21.05V25.31H142.768V29.27H135.898V33.89H143.668V38H130.768V16.94H143.668V21.05H135.898ZM154.889 16.94C157.109 16.94 159.049 17.38 160.709 18.26C162.369 19.14 163.649 20.38 164.549 21.98C165.469 23.56 165.929 25.39 165.929 27.47C165.929 29.53 165.469 31.36 164.549 32.96C163.649 34.56 162.359 35.8 160.679 36.68C159.019 37.56 157.089 38 154.889 38H146.999V16.94H154.889ZM154.559 33.56C156.499 33.56 158.009 33.03 159.089 31.97C160.169 30.91 160.709 29.41 160.709 27.47C160.709 25.53 160.169 24.02 159.089 22.94C158.009 21.86 156.499 21.32 154.559 21.32H152.129V33.56H154.559ZM182.776 23.6C182.396 22.9 181.846 22.37 181.126 22.01C180.426 21.63 179.596 21.44 178.636 21.44C176.976 21.44 175.646 21.99 174.646 23.09C173.646 24.17 173.146 25.62 173.146 27.44C173.146 29.38 173.666 30.9 174.706 32C175.766 33.08 177.216 33.62 179.056 33.62C180.316 33.62 181.376 33.3 182.236 32.66C183.116 32.02 183.756 31.1 184.156 29.9H177.646V26.12H188.806V30.89C188.426 32.17 187.776 33.36 186.856 34.46C185.956 35.56 184.806 36.45 183.406 37.13C182.006 37.81 180.426 38.15 178.666 38.15C176.586 38.15 174.726 37.7 173.086 36.8C171.466 35.88 170.196 34.61 169.276 32.99C168.376 31.37 167.926 29.52 167.926 27.44C167.926 25.36 168.376 23.51 169.276 21.89C170.196 20.25 171.466 18.98 173.086 18.08C174.706 17.16 176.556 16.7 178.636 16.7C181.156 16.7 183.276 17.31 184.996 18.53C186.736 19.75 187.886 21.44 188.446 23.6H182.776ZM196.777 21.05V25.31H203.647V29.27H196.777V33.89H204.547V38H191.647V16.94H204.547V21.05H196.777Z" fill="#6958FF"/>
<rect x="20.5" width="7" height="48" fill="#FD4C5C"/>
<rect x="48" y="20.5" width="7" height="48" transform="rotate(90 48 20.5)" fill="#FD4C5C"/>
<rect x="38.3516" y="4.44797" width="7" height="48" transform="rotate(44.5766 38.3516 4.44797)" fill="#FD4C5C"/>
<rect x="43.5522" y="38.3516" width="7" height="48" transform="rotate(134.577 43.5522 38.3516)" fill="#FD4C5C"/>
</svg>
