<svg width="60" height="60" viewBox="0 0 60 60" fill="none" xmlns="http://www.w3.org/2000/svg">
<path d="M30 60C37.9565 60 45.5871 56.8393 51.2132 51.2132C56.8393 45.5871 60 37.9565 60 30C60 22.0435 56.8393 14.4129 51.2132 8.78679C45.5871 3.1607 37.9565 -1.65913e-06 30 -1.31134e-06C22.0435 -9.63552e-07 14.4129 3.16071 8.7868 8.7868C3.16071 14.4129 9.63552e-07 22.0435 1.31134e-06 30C1.65913e-06 37.9565 3.16071 45.5871 8.7868 51.2132C14.4129 56.8393 22.0435 60 30 60ZM16.875 31.875C16.3777 31.875 15.9008 31.6775 15.5492 31.3258C15.1975 30.9742 15 30.4973 15 30C15 29.5027 15.1975 29.0258 15.5492 28.6742C15.9008 28.3225 16.3777 28.125 16.875 28.125L38.5988 28.125L30.5475 20.0775C30.1954 19.7254 29.9976 19.2479 29.9976 18.75C29.9976 18.2521 30.1954 17.7746 30.5475 17.4225C30.8996 17.0704 31.3771 16.8726 31.875 16.8726C32.3729 16.8726 32.8504 17.0704 33.2025 17.4225L44.4525 28.6725C44.6271 28.8467 44.7656 29.0536 44.8602 29.2814C44.9547 29.5092 45.0034 29.7534 45.0034 30C45.0034 30.2466 44.9547 30.4908 44.8602 30.7186C44.7656 30.9464 44.6271 31.1533 44.4525 31.3275L33.2025 42.5775C32.8504 42.9296 32.3729 43.1274 31.875 43.1274C31.3771 43.1274 30.8996 42.9296 30.5475 42.5775C30.1954 42.2254 29.9976 41.7479 29.9976 41.25C29.9976 40.7521 30.1954 40.2746 30.5475 39.9225L38.5988 31.875L16.875 31.875Z" fill="#FFB800"/>
</svg>
