<svg width="27" height="20" viewBox="0 0 27 20" fill="none" xmlns="http://www.w3.org/2000/svg">
<g clip-path="url(#clip0_186_275)">
<path d="M24.6227 0.537815C24.4561 0.3674 24.2578 0.232136 24.0392 0.13983C23.8207 0.0475236 23.5863 0 23.3496 0C23.1129 0 22.8786 0.0475236 22.66 0.13983C22.4416 0.232136 22.2433 0.3674 22.0765 0.537815L8.71793 14.1015L3.10551 8.39236C2.93244 8.22284 2.72814 8.08955 2.50425 8.00007C2.28038 7.91062 2.04132 7.86675 1.80071 7.87096C1.56011 7.87518 1.32269 7.92742 1.102 8.02467C0.881307 8.12193 0.681668 8.26233 0.514481 8.43782C0.347295 8.61331 0.215836 8.82047 0.127608 9.04749C0.03938 9.27449 -0.00388843 9.51691 0.000274199 9.76087C0.00443682 10.0048 0.0559488 10.2456 0.151868 10.4693C0.247787 10.6931 0.386236 10.8956 0.559308 11.0651L7.44482 18.0469C7.61153 18.2173 7.80984 18.3525 8.02835 18.4449C8.24686 18.5373 8.48122 18.5847 8.71793 18.5847C8.95463 18.5847 9.18901 18.5373 9.40752 18.4449C9.62603 18.3525 9.82434 18.2173 9.99103 18.0469L24.6227 3.21055C24.8047 3.04029 24.95 2.83364 25.0493 2.60364C25.1486 2.37365 25.2001 2.12527 25.2001 1.87418C25.2001 1.62309 25.1486 1.37471 25.0493 1.14471C24.95 0.914713 24.8047 0.708075 24.6227 0.537815Z" fill="#FFB800"/>
</g>
<defs>
<clipPath id="clip0_186_275">
<rect width="26.8966" height="20" fill="white"/>
</clipPath>
</defs>
</svg>
